<svg width="29" height="41" viewBox="0 0 29 41" fill="none" xmlns="http://www.w3.org/2000/svg">
<path d="M1 17.1887V1L27.4906 8.72641V17.1887H1Z" stroke="black" stroke-width="1.4717"/>
<path d="M1 29.8317V20.8677C1 20.4613 1.32945 20.1318 1.73585 20.1318H26.7547C27.1611 20.1318 27.4906 20.4613 27.4906 20.8677V29.8317C27.4906 31.4573 26.1728 32.7751 24.5472 32.7751H17.9784C17.9487 32.7751 17.9245 32.7992 17.9245 32.829V36.0148C17.9245 38.2156 16.1404 39.9998 13.9395 39.9998C11.7387 39.9998 9.95456 38.2156 9.95456 36.0148V32.829C9.95456 32.7992 9.93042 32.7751 9.90064 32.7751H3.9434C2.3178 32.7751 1 31.4573 1 29.8317Z" stroke="black" stroke-width="1.4717"/>
</svg>
