<svg  viewBox="0 0 57 54"  xmlns="http://www.w3.org/2000/svg">
<path fill-rule="evenodd" clip-rule="evenodd" d="M48 0C52.9706 0 57 4.02944 57 9V35C57 39.9706 52.9706 44 48 44V54L36.333 44H9L8.53711 43.9883C3.78166 43.7474 0 39.8153 0 35V9C0 4.18468 3.78166 0.252643 8.53711 0.0117188L9 0H48ZM46 49.6514V42H37L46 49.6514ZM9 2C5.13401 2 2 5.13401 2 9V35C2 38.866 5.13401 42 9 42H48C51.866 42 55 38.866 55 35V9C55 5.13401 51.866 2 48 2H9Z"/>
<line x1="11" y1="13" x2="45" y2="13"  stroke-width="2"/>
<line x1="11" y1="19" x2="45" y2="19"  stroke-width="2"/>
<line x1="11" y1="25" x2="45" y2="25"  stroke-width="2"/>
<line x1="11" y1="31" x2="45" y2="31"  stroke-width="2"/>
</svg>
