<svg  viewBox="0 0 55 44"  xmlns="http://www.w3.org/2000/svg">
<mask id="path-1-inside-1_796_526" >
<path d="M27.3552 3.44853e-05C31.5381 0.00884165 35.5521 1.65534 38.5358 4.58695C41.0381 7.0456 42.6485 10.2447 43.152 13.6797C46.0635 13.6321 48.895 14.675 51.0827 16.6153C53.3973 18.6681 54.8018 21.5564 54.987 24.6446C55.172 27.7327 54.1227 30.7685 52.07 33.083C50.0172 35.3975 47.1288 36.8022 44.0407 36.9873L43.9206 34.9912C46.4792 34.8378 48.8721 33.6734 50.5729 31.7559C52.2738 29.8381 53.1443 27.3225 52.9909 24.7637C52.8374 22.2051 51.6732 19.8122 49.7555 18.1114C47.9764 16.5335 45.6833 15.6727 43.318 15.6787C43.3181 15.6807 43.319 15.6826 43.319 15.6846L42.319 15.7051L41.319 15.7246C41.2469 12.0653 39.7451 8.57892 37.1345 6.01371C34.5237 3.44849 31.0114 2.00774 27.3513 2.00003C23.6913 1.99238 20.1739 3.41864 17.5524 5.97269C14.931 8.52683 13.4135 12.0061 13.3259 15.6651L12.9235 15.6553L12.9216 15.6953C10.363 15.5418 7.84815 16.4108 5.93035 18.1114C4.01255 19.812 2.84861 22.2051 2.695 24.7637C2.54145 27.3224 3.41129 29.8371 5.11199 31.7549C6.8126 33.6727 9.20482 34.8366 11.7634 34.9903L11.6442 36.9873C8.55614 36.802 5.66852 35.3966 3.6159 33.0821C1.56337 30.7675 0.513716 27.7326 0.698908 24.6446C0.88424 21.5564 2.28854 18.6679 4.6032 16.6153C6.5273 14.909 8.9497 13.8988 11.486 13.7119C11.9873 10.2415 13.6193 7.01169 16.1559 4.54007C19.1519 1.62109 23.1723 -0.00864428 27.3552 3.44853e-05Z"/>
</mask>Z
<path d="M27.3552 3.44853e-05C31.5381 0.00884165 35.5521 1.65534 38.5358 4.58695C41.0381 7.0456 42.6485 10.2447 43.152 13.6797C46.0635 13.6321 48.895 14.675 51.0827 16.6153C53.3973 18.6681 54.8018 21.5564 54.987 24.6446C55.172 27.7327 54.1227 30.7685 52.07 33.083C50.0172 35.3975 47.1288 36.8022 44.0407 36.9873L43.9206 34.9912C46.4792 34.8378 48.8721 33.6734 50.5729 31.7559C52.2738 29.8381 53.1443 27.3225 52.9909 24.7637C52.8374 22.2051 51.6732 19.8122 49.7555 18.1114C47.9764 16.5335 45.6833 15.6727 43.318 15.6787C43.3181 15.6807 43.319 15.6826 43.319 15.6846L42.319 15.7051L41.319 15.7246C41.2469 12.0653 39.7451 8.57892 37.1345 6.01371C34.5237 3.44849 31.0114 2.00774 27.3513 2.00003C23.6913 1.99238 20.1739 3.41864 17.5524 5.97269C14.931 8.52683 13.4135 12.0061 13.3259 15.6651L12.9235 15.6553L12.9216 15.6953C10.363 15.5418 7.84815 16.4108 5.93035 18.1114C4.01255 19.812 2.84861 22.2051 2.695 24.7637C2.54145 27.3224 3.41129 29.8371 5.11199 31.7549C6.8126 33.6727 9.20482 34.8366 11.7634 34.9903L11.6442 36.9873C8.55614 36.802 5.66852 35.3966 3.6159 33.0821C1.56337 30.7675 0.513716 27.7326 0.698908 24.6446C0.88424 21.5564 2.28854 18.6679 4.6032 16.6153C6.5273 14.909 8.9497 13.8988 11.486 13.7119C11.9873 10.2415 13.6193 7.01169 16.1559 4.54007C19.1519 1.62109 23.1723 -0.00864428 27.3552 3.44853e-05Z" fill="#D9D9D9"/>
<path d="M27.3552 3.44853e-05L27.3678 -5.99995L27.3676 -5.99995L27.3552 3.44853e-05ZM38.5358 4.58695L42.741 0.307161L42.7409 0.307081L38.5358 4.58695ZM43.152 13.6797L37.2155 14.5499L37.9799 19.7651L43.2501 19.6789L43.152 13.6797ZM51.0827 16.6153L55.0639 12.1264L55.0639 12.1264L51.0827 16.6153ZM54.987 24.6446L60.9763 24.2857L60.9762 24.2854L54.987 24.6446ZM52.07 33.083L56.5588 37.0643L56.559 37.0641L52.07 33.083ZM44.0407 36.9873L38.0515 37.3477L38.4119 43.3357L44.3999 42.9766L44.0407 36.9873ZM43.9206 34.9912L43.5614 29.002L37.5709 29.3613L37.9314 35.3517L43.9206 34.9912ZM50.5729 31.7559L55.0616 35.7373L55.0618 35.7371L50.5729 31.7559ZM52.9909 24.7637L58.9802 24.4047L58.9801 24.4044L52.9909 24.7637ZM49.7555 18.1114L53.7368 13.6225L53.7367 13.6224L49.7555 18.1114ZM43.318 15.6787L43.3027 9.67876L37.1966 9.69436L37.3193 15.7993L43.318 15.6787ZM43.319 15.6846L43.442 21.6833L49.4361 21.5604L49.3179 15.5662L43.319 15.6846ZM42.319 15.7051L42.4362 21.704L42.442 21.7039L42.319 15.7051ZM41.319 15.7246L35.3202 15.8429L35.4384 21.8406L41.4362 21.7235L41.319 15.7246ZM37.1345 6.01371L41.3397 1.73398L41.3396 1.73387L37.1345 6.01371ZM27.3513 2.00003L27.3639 -3.99995L27.3638 -3.99995L27.3513 2.00003ZM17.5524 5.97269L13.3654 1.67512L13.3653 1.67523L17.5524 5.97269ZM13.3259 15.6651L13.1803 21.6633L19.1805 21.8089L19.3241 15.8087L13.3259 15.6651ZM12.9235 15.6553L13.0691 9.65707L7.21591 9.51501L6.93064 15.363L12.9235 15.6553ZM12.9216 15.6953L12.5622 21.6846L18.6188 22.0479L18.9144 15.9877L12.9216 15.6953ZM5.93035 18.1114L1.9496 13.6221L1.94948 13.6222L5.93035 18.1114ZM2.695 24.7637L-3.29422 24.4042L-3.29422 24.4043L2.695 24.7637ZM5.11199 31.7549L0.622824 35.7358L0.622829 35.7358L5.11199 31.7549ZM11.7634 34.9903L17.7527 35.3476L18.1099 29.3606L12.1231 29.0011L11.7634 34.9903ZM11.6442 36.9873L11.2848 42.9766L17.2761 43.3361L17.6336 37.3447L11.6442 36.9873ZM3.6159 33.0821L-0.87327 37.0629L-0.87315 37.0631L3.6159 33.0821ZM0.698908 24.6446L-5.29032 24.2851L-5.29033 24.2854L0.698908 24.6446ZM4.6032 16.6153L0.622352 12.1261L0.622283 12.1261L4.6032 16.6153ZM11.486 13.7119L11.927 19.6957L16.7352 19.3414L17.4244 14.5697L11.486 13.7119ZM16.1559 4.54007L11.9689 0.24258L11.9688 0.242677L16.1559 4.54007ZM27.3552 3.44853e-05L27.3425 6.00002C29.9573 6.00553 32.4662 7.03483 34.3307 8.86682L38.5358 4.58695L42.7409 0.307081C38.638 -3.72416 33.119 -5.98784 27.3678 -5.99995L27.3552 3.44853e-05ZM38.5358 4.58695L34.3307 8.86674C35.8935 10.4023 36.9006 12.4016 37.2155 14.5499L43.152 13.6797L49.0886 12.8096C48.3965 8.08772 46.1827 3.68887 42.741 0.307161L38.5358 4.58695ZM43.152 13.6797L43.2501 19.6789C44.6651 19.6558 46.04 20.1627 47.1015 21.1041L51.0827 16.6153L55.0639 12.1264C51.75 9.18727 47.4619 7.60845 43.0539 7.68052L43.152 13.6797ZM51.0827 16.6153L47.1015 21.1041C48.2257 22.1012 48.9078 23.5041 48.9978 25.0037L54.987 24.6446L60.9762 24.2854C60.6958 19.6087 58.5688 15.2349 55.0639 12.1264L51.0827 16.6153ZM54.987 24.6446L48.9977 25.0034C49.0876 26.5034 48.5778 27.978 47.581 29.1019L52.07 33.083L56.559 37.0641C59.6676 33.559 61.2564 28.962 60.9763 24.2857L54.987 24.6446ZM52.07 33.083L47.5812 29.1017C46.5841 30.226 45.181 30.9082 43.6816 30.9981L44.0407 36.9873L44.3999 42.9766C49.0766 42.6961 53.4504 40.569 56.5588 37.0643L52.07 33.083ZM44.0407 36.9873L50.0299 36.6269L49.9098 34.6308L43.9206 34.9912L37.9314 35.3517L38.0515 37.3477L44.0407 36.9873ZM43.9206 34.9912L44.2798 40.9805C48.428 40.7317 52.3059 38.8442 55.0616 35.7373L50.5729 31.7559L46.0842 27.7745C45.4383 28.5027 44.5303 28.9439 43.5614 29.002L43.9206 34.9912ZM50.5729 31.7559L55.0618 35.7371C57.8177 32.6298 59.2288 28.5533 58.9802 24.4047L52.9909 24.7637L47.0016 25.1227C47.0597 26.0917 46.73 27.0464 46.0841 27.7747L50.5729 31.7559ZM52.9909 24.7637L58.9801 24.4044C58.7313 20.2565 56.8442 16.3785 53.7368 13.6225L49.7555 18.1114L45.7743 22.6002C46.5023 23.2458 46.9435 24.1537 47.0017 25.123L52.9909 24.7637ZM49.7555 18.1114L53.7367 13.6224C50.851 11.0632 47.1339 9.66898 43.3027 9.67876L43.318 15.6787L43.3334 21.6787C44.2327 21.6764 45.1017 22.0037 45.7744 22.6003L49.7555 18.1114ZM43.318 15.6787L37.3193 15.7993C37.3215 15.909 37.3265 16.012 37.3334 16.1074C37.3402 16.2029 37.3488 16.2915 37.3582 16.3724C37.3676 16.4533 37.3779 16.5274 37.3882 16.5939C37.3984 16.6603 37.4088 16.7203 37.4185 16.7726C37.4282 16.825 37.4375 16.8712 37.4456 16.9099C37.4536 16.9485 37.4609 16.9814 37.4667 17.0068C37.4724 17.032 37.4772 17.0523 37.4801 17.0646C37.4816 17.0709 37.4828 17.076 37.4835 17.0791C37.4839 17.0806 37.4842 17.0819 37.4844 17.0827C37.4845 17.0831 37.4846 17.0834 37.4846 17.0836C37.4846 17.0837 37.4847 17.0838 37.4847 17.0839C37.4847 17.0839 37.4847 17.0839 37.4847 17.0839C37.4847 17.0839 37.4847 17.0839 37.4847 17.0839C37.4848 17.0844 37.4842 17.082 37.4836 17.0793C37.4829 17.0763 37.4817 17.0713 37.4802 17.0651C37.4773 17.053 37.4726 17.0328 37.4669 17.0077C37.4612 16.9825 37.4539 16.9497 37.4459 16.9113C37.4378 16.8727 37.4286 16.8267 37.419 16.7745C37.4093 16.7223 37.3989 16.6625 37.3887 16.5962C37.3785 16.5299 37.3683 16.4559 37.3589 16.3751C37.3496 16.2944 37.341 16.2059 37.3342 16.1106C37.3274 16.0153 37.3224 15.9125 37.3202 15.803L43.319 15.6846L49.3179 15.5662C49.3157 15.4565 49.3106 15.3534 49.3038 15.2578C49.297 15.1623 49.2884 15.0736 49.279 14.9926C49.2696 14.9116 49.2593 14.8374 49.2491 14.7708C49.2389 14.7043 49.2285 14.6442 49.2188 14.5918C49.2091 14.5394 49.1998 14.4931 49.1917 14.4543C49.1836 14.4156 49.1763 14.3825 49.1705 14.3571C49.1648 14.3318 49.16 14.3114 49.1571 14.299C49.1556 14.2927 49.1543 14.2876 49.1536 14.2844C49.1532 14.2828 49.1529 14.2815 49.1527 14.2807C49.1526 14.2803 49.1525 14.28 49.1525 14.2798C49.1524 14.2797 49.1524 14.2796 49.1524 14.2795C49.1524 14.2795 49.1524 14.2794 49.1524 14.2794C49.1523 14.2789 49.1528 14.2812 49.1535 14.2839C49.1542 14.2869 49.1554 14.2919 49.1568 14.298C49.1597 14.31 49.1644 14.3301 49.17 14.3551C49.1757 14.3802 49.183 14.4129 49.191 14.4513C49.1991 14.4898 49.2083 14.5357 49.2179 14.5878C49.2276 14.6399 49.2379 14.6996 49.2481 14.7658C49.2583 14.832 49.2686 14.9059 49.278 14.9866C49.2873 15.0672 49.2959 15.1556 49.3028 15.2508C49.3096 15.346 49.3146 15.4487 49.3168 15.5582L43.318 15.6787ZM43.319 15.6846L43.196 9.68587L42.196 9.70637L42.319 15.7051L42.442 21.7039L43.442 21.6833L43.319 15.6846ZM42.319 15.7051L42.2019 9.70626L41.2019 9.72579L41.319 15.7246L41.4362 21.7235L42.4362 21.704L42.319 15.7051ZM41.319 15.7246L47.3179 15.6064C47.2148 10.3797 45.0699 5.39924 41.3397 1.73398L37.1345 6.01371L32.9292 10.2934C34.4204 11.7586 35.279 13.7509 35.3202 15.8429L41.319 15.7246ZM37.1345 6.01371L41.3396 1.73387C37.6096 -1.93097 32.5923 -3.98894 27.3639 -3.99995L27.3513 2.00003L27.3386 8.00002C29.4305 8.00443 31.4377 8.82795 32.9293 10.2935L37.1345 6.01371ZM27.3513 2.00003L27.3638 -3.99995C22.1348 -4.01089 17.1101 -1.97322 13.3654 1.67512L17.5524 5.97269L21.7394 10.2703C23.2377 8.8105 25.2477 7.99565 27.3387 8.00002L27.3513 2.00003ZM17.5524 5.97269L13.3653 1.67523C9.62072 5.32368 7.45276 10.2939 7.32758 15.5214L13.3259 15.6651L19.3241 15.8087C19.3742 13.7184 20.2412 11.73 21.7395 10.2701L17.5524 5.97269ZM13.3259 15.6651L13.4714 9.66684L13.0691 9.65707L12.9235 15.6553L12.7779 21.6535L13.1803 21.6633L13.3259 15.6651ZM12.9235 15.6553L6.93064 15.363L6.92869 15.403L12.9216 15.6953L18.9144 15.9877L18.9164 15.9476L12.9235 15.6553ZM12.9216 15.6953L13.2809 9.70612C9.13426 9.45734 5.05818 10.8656 1.9496 13.6221L5.93035 18.1114L9.9111 22.6006C10.6381 21.956 11.5917 21.6264 12.5622 21.6846L12.9216 15.6953ZM5.93035 18.1114L1.94948 13.6222C-1.15874 16.3785 -3.04524 20.2569 -3.29422 24.4042L2.695 24.7637L8.68422 25.1233C8.74245 24.1532 9.18383 23.2456 9.91123 22.6005L5.93035 18.1114ZM2.695 24.7637L-3.29422 24.4043C-3.54317 28.5527 -2.13287 32.6282 0.622824 35.7358L5.11199 31.7549L9.60116 27.774C8.95544 27.0459 8.62607 26.0922 8.68423 25.1231L2.695 24.7637ZM5.11199 31.7549L0.622829 35.7358C3.37863 38.8435 7.25598 40.7304 11.4037 40.9795L11.7634 34.9903L12.1231 29.0011C11.1537 28.9428 10.2466 28.5019 9.60116 27.774L5.11199 31.7549ZM11.7634 34.9903L5.77401 34.633L5.65487 36.63L11.6442 36.9873L17.6336 37.3447L17.7527 35.3476L11.7634 34.9903ZM11.6442 36.9873L12.0036 30.9981C10.5054 30.9082 9.10276 30.2262 8.10495 29.1011L3.6159 33.0821L-0.87315 37.0631C2.23428 40.5671 6.60688 42.6958 11.2848 42.9766L11.6442 36.9873ZM3.6159 33.0821L8.10507 29.1012C7.10764 27.9764 6.59827 26.5025 6.68815 25.0037L0.698908 24.6446L-5.29033 24.2854C-5.57084 28.9627 -3.98091 33.5585 -0.87327 37.0629L3.6159 33.0821ZM0.698908 24.6446L6.68813 25.004C6.77817 23.5037 7.46043 22.1009 8.58413 21.1044L4.6032 16.6153L0.622283 12.1261C-2.88335 15.2349 -5.00969 19.6091 -5.29032 24.2851L0.698908 24.6446ZM4.6032 16.6153L8.58406 21.1045C9.51516 20.2788 10.6908 19.7868 11.927 19.6957L11.486 13.7119L11.0451 7.72817C7.20858 8.01088 3.53944 9.53931 0.622352 12.1261L4.6032 16.6153ZM11.486 13.7119L17.4244 14.5697C17.7376 12.4009 18.7578 10.3822 20.3431 8.83747L16.1559 4.54007L11.9688 0.242677C8.48076 3.64122 6.23692 8.08208 5.54764 12.8542L11.486 13.7119ZM16.1559 4.54007L20.343 8.83757C22.2154 7.0133 24.7283 5.9946 27.3427 6.00002L27.3552 3.44853e-05L27.3676 -5.99995C21.6164 -6.01189 16.0884 -3.77112 11.9689 0.24258L16.1559 4.54007Z"  mask="url(#path-1-inside-1_796_526)"/>
<line x1="14.3218" y1="30" x2="33.3218" y2="30"  stroke-width="2"/>
<line x1="20.3218" y1="25" x2="39.3218" y2="25"  stroke-width="2"/>
<line x1="23.3218" y1="35" x2="42.3218" y2="35"  stroke-width="2"/>
<line x1="14.3218" y1="39" x2="33.3218" y2="39"  stroke-width="2"/>
<line x1="23.3218" y1="43" x2="42.3218" y2="43"  stroke-width="2"/>
</svg>
